<svg xmlns="http://www.w3.org/2000/svg" xmlns:xlink="http://www.w3.org/1999/xlink" viewBox="0 0 750 500"><defs><style>.cls-1,.cls-5,.cls-6,.cls-7,.cls-8{fill:none;}.cls-2{fill:#f4f4f4;}.cls-3{clip-path:url(#clip-path);}.cls-4{opacity:0.36;}.cls-5{stroke:#efdcc2;}.cls-5,.cls-6,.cls-7,.cls-8{stroke-miterlimit:10;}.cls-6{stroke:#ccdbea;}.cls-7{stroke:#e8cdcd;stroke-width:2px;}.cls-8{stroke:#c9656c;}</style><clipPath id="clip-path"><rect class="cls-1" width="750" height="500"/></clipPath></defs><title>Mesa de trabajo 1gridbackground</title><g id="BACKGROUND"><rect class="cls-2" width="750" height="500"/></g><g id="OBJECTS"><g class="cls-3"><g class="cls-4"><line class="cls-5" x1="-11.67" y1="498.63" x2="761" y2="498.63"/><line class="cls-5" x1="-11.67" y1="487.55" x2="761" y2="487.55"/><line class="cls-5" x1="-11.67" y1="476.47" x2="761" y2="476.47"/><line class="cls-5" x1="-11.67" y1="465.39" x2="761" y2="465.39"/><line class="cls-5" x1="-11.67" y1="454.31" x2="761" y2="454.31"/><line class="cls-5" x1="-11.67" y1="443.23" x2="761" y2="443.23"/><line class="cls-5" x1="-11.67" y1="432.15" x2="761" y2="432.15"/><line class="cls-5" x1="-11.67" y1="421.07" x2="761" y2="421.07"/><line class="cls-5" x1="-11.67" y1="409.98" x2="761" y2="409.98"/><line class="cls-5" x1="-11.67" y1="398.9" x2="761" y2="398.9"/><line class="cls-5" x1="-11.67" y1="387.82" x2="761" y2="387.82"/><line class="cls-5" x1="-11.67" y1="376.74" x2="761" y2="376.74"/><line class="cls-5" x1="-11.67" y1="365.66" x2="761" y2="365.66"/><line class="cls-5" x1="-11.67" y1="354.58" x2="761" y2="354.58"/><line class="cls-5" x1="-11.67" y1="343.5" x2="761" y2="343.5"/><line class="cls-5" x1="-11.67" y1="332.42" x2="761" y2="332.42"/><line class="cls-5" x1="-11.67" y1="321.34" x2="761" y2="321.34"/><line class="cls-5" x1="-11.67" y1="310.25" x2="761" y2="310.25"/><line class="cls-5" x1="-11.67" y1="299.17" x2="761" y2="299.17"/><line class="cls-5" x1="-11.67" y1="288.09" x2="761" y2="288.09"/><line class="cls-5" x1="-11.67" y1="277.01" x2="761" y2="277.01"/><line class="cls-5" x1="-11.67" y1="265.93" x2="761" y2="265.93"/><line class="cls-5" x1="-11.67" y1="254.85" x2="761" y2="254.85"/><line class="cls-5" x1="-11.67" y1="243.77" x2="761" y2="243.77"/><line class="cls-5" x1="-11.67" y1="232.69" x2="761" y2="232.69"/><line class="cls-5" x1="-11.67" y1="221.6" x2="761" y2="221.6"/><line class="cls-5" x1="-11.67" y1="210.52" x2="761" y2="210.52"/><line class="cls-5" x1="-11.67" y1="199.44" x2="761" y2="199.44"/><line class="cls-5" x1="-11.67" y1="188.36" x2="761" y2="188.36"/><line class="cls-5" x1="-11.67" y1="177.28" x2="761" y2="177.28"/><line class="cls-5" x1="-11.67" y1="166.2" x2="761" y2="166.2"/><line class="cls-5" x1="-11.67" y1="155.12" x2="761" y2="155.12"/><line class="cls-5" x1="-11.67" y1="144.04" x2="761" y2="144.04"/><line class="cls-5" x1="-11.67" y1="132.96" x2="761" y2="132.96"/><line class="cls-5" x1="-11.67" y1="121.87" x2="761" y2="121.87"/><line class="cls-5" x1="-11.67" y1="110.79" x2="761" y2="110.79"/><line class="cls-5" x1="-11.67" y1="99.71" x2="761" y2="99.71"/><line class="cls-5" x1="-11.67" y1="88.63" x2="761" y2="88.63"/><line class="cls-5" x1="-11.67" y1="77.55" x2="761" y2="77.55"/><line class="cls-5" x1="-11.67" y1="66.47" x2="761" y2="66.47"/><line class="cls-5" x1="-11.67" y1="55.39" x2="761" y2="55.39"/><line class="cls-5" x1="-11.67" y1="44.31" x2="761" y2="44.31"/><line class="cls-5" x1="-11.67" y1="33.23" x2="761" y2="33.23"/><line class="cls-5" x1="-11.67" y1="22.14" x2="761" y2="22.14"/><line class="cls-5" x1="-11.67" y1="11.06" x2="761" y2="11.06"/><line class="cls-5" x1="-11.67" y1="-0.02" x2="761" y2="-0.02"/><line class="cls-5" x1="12.41" y1="-6.34" x2="12.41" y2="516.04"/><line class="cls-5" x1="23.49" y1="-6.34" x2="23.49" y2="516.04"/><line class="cls-5" x1="34.57" y1="-6.34" x2="34.57" y2="516.04"/><line class="cls-5" x1="45.65" y1="-6.34" x2="45.65" y2="516.04"/><line class="cls-5" x1="56.74" y1="-6.34" x2="56.74" y2="516.04"/><line class="cls-5" x1="67.82" y1="-6.34" x2="67.82" y2="516.04"/><line class="cls-5" x1="78.9" y1="-6.34" x2="78.9" y2="516.04"/><line class="cls-5" x1="89.98" y1="-6.34" x2="89.98" y2="516.04"/><line class="cls-5" x1="101.06" y1="-6.34" x2="101.06" y2="516.04"/><line class="cls-5" x1="112.14" y1="-6.34" x2="112.14" y2="516.04"/><line class="cls-5" x1="123.22" y1="-6.34" x2="123.22" y2="516.04"/><line class="cls-5" x1="134.3" y1="-6.34" x2="134.3" y2="516.04"/><line class="cls-5" x1="145.39" y1="-6.34" x2="145.39" y2="516.04"/><line class="cls-5" x1="156.47" y1="-6.34" x2="156.47" y2="516.04"/><line class="cls-5" x1="167.55" y1="-6.34" x2="167.55" y2="516.04"/><line class="cls-5" x1="178.63" y1="-6.34" x2="178.63" y2="516.04"/><line class="cls-5" x1="189.71" y1="-6.34" x2="189.71" y2="516.04"/><line class="cls-5" x1="200.79" y1="-6.34" x2="200.79" y2="516.04"/><line class="cls-5" x1="211.87" y1="-6.34" x2="211.87" y2="516.04"/><line class="cls-5" x1="222.95" y1="-6.34" x2="222.95" y2="516.04"/><line class="cls-5" x1="234.03" y1="-6.34" x2="234.03" y2="516.04"/><line class="cls-5" x1="245.12" y1="-6.34" x2="245.12" y2="516.04"/><line class="cls-5" x1="256.2" y1="-6.34" x2="256.2" y2="516.04"/><line class="cls-5" x1="267.28" y1="-6.34" x2="267.28" y2="516.04"/><line class="cls-5" x1="278.36" y1="-6.34" x2="278.36" y2="516.04"/><line class="cls-5" x1="289.44" y1="-6.34" x2="289.44" y2="516.04"/><line class="cls-5" x1="300.52" y1="-6.34" x2="300.52" y2="516.04"/><line class="cls-5" x1="311.6" y1="-6.34" x2="311.6" y2="516.04"/><line class="cls-5" x1="322.68" y1="-6.34" x2="322.68" y2="516.04"/><line class="cls-5" x1="333.77" y1="-6.34" x2="333.77" y2="516.04"/><line class="cls-5" x1="344.85" y1="-6.34" x2="344.85" y2="516.04"/><line class="cls-5" x1="355.93" y1="-6.34" x2="355.93" y2="516.04"/><line class="cls-5" x1="367.01" y1="-6.34" x2="367.01" y2="516.04"/><line class="cls-5" x1="378.09" y1="-6.34" x2="378.09" y2="516.04"/><line class="cls-5" x1="389.17" y1="-6.34" x2="389.17" y2="516.04"/><line class="cls-5" x1="400.25" y1="-6.34" x2="400.25" y2="516.04"/><line class="cls-5" x1="411.33" y1="-6.34" x2="411.33" y2="516.04"/><line class="cls-5" x1="422.41" y1="-6.34" x2="422.41" y2="516.04"/><line class="cls-5" x1="433.5" y1="-6.34" x2="433.5" y2="516.04"/><line class="cls-5" x1="444.58" y1="-6.34" x2="444.58" y2="516.04"/><line class="cls-5" x1="455.66" y1="-6.34" x2="455.66" y2="516.04"/><line class="cls-5" x1="466.74" y1="-6.34" x2="466.74" y2="516.04"/><line class="cls-5" x1="477.82" y1="-6.34" x2="477.82" y2="516.04"/><line class="cls-5" x1="488.9" y1="-6.34" x2="488.9" y2="516.04"/><line class="cls-5" x1="499.98" y1="-6.34" x2="499.98" y2="516.04"/><line class="cls-5" x1="511.06" y1="-6.34" x2="511.06" y2="516.04"/><line class="cls-5" x1="522.14" y1="-6.34" x2="522.14" y2="516.04"/><line class="cls-5" x1="533.23" y1="-6.34" x2="533.23" y2="516.04"/><line class="cls-5" x1="544.31" y1="-6.34" x2="544.31" y2="516.04"/><line class="cls-5" x1="555.39" y1="-6.34" x2="555.39" y2="516.04"/><line class="cls-5" x1="566.47" y1="-6.34" x2="566.47" y2="516.04"/><line class="cls-5" x1="577.55" y1="-6.34" x2="577.55" y2="516.04"/><line class="cls-5" x1="588.63" y1="-6.34" x2="588.63" y2="516.04"/><line class="cls-5" x1="599.71" y1="-6.34" x2="599.71" y2="516.04"/><line class="cls-5" x1="610.79" y1="-6.34" x2="610.79" y2="516.04"/><line class="cls-5" x1="621.88" y1="-6.34" x2="621.88" y2="516.04"/><line class="cls-5" x1="632.96" y1="-6.34" x2="632.96" y2="516.04"/><line class="cls-5" x1="644.04" y1="-6.34" x2="644.04" y2="516.04"/><line class="cls-5" x1="655.12" y1="-6.34" x2="655.12" y2="516.04"/><line class="cls-5" x1="666.2" y1="-6.34" x2="666.2" y2="516.04"/><line class="cls-5" x1="677.28" y1="-6.34" x2="677.28" y2="516.04"/><line class="cls-5" x1="688.36" y1="-6.34" x2="688.36" y2="516.04"/><line class="cls-5" x1="699.44" y1="-6.34" x2="699.44" y2="516.04"/><line class="cls-5" x1="710.52" y1="-6.34" x2="710.52" y2="516.04"/><line class="cls-5" x1="721.61" y1="-6.34" x2="721.61" y2="516.04"/><line class="cls-5" x1="732.69" y1="-6.34" x2="732.69" y2="516.04"/><line class="cls-5" x1="743.77" y1="-6.34" x2="743.77" y2="516.04"/></g></g><g class="cls-3"><line class="cls-6" x1="-12.67" y1="497.63" x2="760" y2="497.63"/><line class="cls-6" x1="-12.67" y1="486.55" x2="760" y2="486.55"/><line class="cls-6" x1="-12.67" y1="475.47" x2="760" y2="475.47"/><line class="cls-6" x1="-12.67" y1="464.39" x2="760" y2="464.39"/><line class="cls-6" x1="-12.67" y1="453.31" x2="760" y2="453.31"/><line class="cls-6" x1="-12.67" y1="442.23" x2="760" y2="442.23"/><line class="cls-6" x1="-12.67" y1="431.15" x2="760" y2="431.15"/><line class="cls-6" x1="-12.67" y1="420.07" x2="760" y2="420.07"/><line class="cls-6" x1="-12.67" y1="408.98" x2="760" y2="408.98"/><line class="cls-6" x1="-12.67" y1="397.9" x2="760" y2="397.9"/><line class="cls-6" x1="-12.67" y1="386.82" x2="760" y2="386.82"/><line class="cls-6" x1="-12.67" y1="375.74" x2="760" y2="375.74"/><line class="cls-6" x1="-12.67" y1="364.66" x2="760" y2="364.66"/><line class="cls-6" x1="-12.67" y1="353.58" x2="760" y2="353.58"/><line class="cls-6" x1="-12.67" y1="342.5" x2="760" y2="342.5"/><line class="cls-6" x1="-12.67" y1="331.42" x2="760" y2="331.42"/><line class="cls-6" x1="-12.67" y1="320.34" x2="760" y2="320.34"/><line class="cls-6" x1="-12.67" y1="309.25" x2="760" y2="309.25"/><line class="cls-6" x1="-12.67" y1="298.17" x2="760" y2="298.17"/><line class="cls-6" x1="-12.67" y1="287.09" x2="760" y2="287.09"/><line class="cls-6" x1="-12.67" y1="276.01" x2="760" y2="276.01"/><line class="cls-6" x1="-12.67" y1="264.93" x2="760" y2="264.93"/><line class="cls-6" x1="-12.67" y1="253.85" x2="760" y2="253.85"/><line class="cls-6" x1="-12.67" y1="242.77" x2="760" y2="242.77"/><line class="cls-6" x1="-12.67" y1="231.69" x2="760" y2="231.69"/><line class="cls-6" x1="-12.67" y1="220.6" x2="760" y2="220.6"/><line class="cls-6" x1="-12.67" y1="209.52" x2="760" y2="209.52"/><line class="cls-6" x1="-12.67" y1="198.44" x2="760" y2="198.44"/><line class="cls-6" x1="-12.67" y1="187.36" x2="760" y2="187.36"/><line class="cls-6" x1="-12.67" y1="176.28" x2="760" y2="176.28"/><line class="cls-6" x1="-12.67" y1="165.2" x2="760" y2="165.2"/><line class="cls-6" x1="-12.67" y1="154.12" x2="760" y2="154.12"/><line class="cls-6" x1="-12.67" y1="143.04" x2="760" y2="143.04"/><line class="cls-6" x1="-12.67" y1="131.96" x2="760" y2="131.96"/><line class="cls-6" x1="-12.67" y1="120.87" x2="760" y2="120.87"/><line class="cls-6" x1="-12.67" y1="109.79" x2="760" y2="109.79"/><line class="cls-6" x1="-12.67" y1="98.71" x2="760" y2="98.71"/><line class="cls-6" x1="-12.67" y1="87.63" x2="760" y2="87.63"/><line class="cls-6" x1="-12.67" y1="76.55" x2="760" y2="76.55"/><line class="cls-6" x1="-12.67" y1="65.47" x2="760" y2="65.47"/><line class="cls-6" x1="-12.67" y1="54.39" x2="760" y2="54.39"/><line class="cls-6" x1="-12.67" y1="43.31" x2="760" y2="43.31"/><line class="cls-6" x1="-12.67" y1="32.23" x2="760" y2="32.23"/><line class="cls-6" x1="-12.67" y1="21.14" x2="760" y2="21.14"/><line class="cls-6" x1="-12.67" y1="10.06" x2="760" y2="10.06"/><line class="cls-6" x1="11.41" y1="-7.34" x2="11.41" y2="515.04"/><line class="cls-6" x1="22.49" y1="-7.34" x2="22.49" y2="515.04"/><line class="cls-6" x1="33.57" y1="-7.34" x2="33.57" y2="515.04"/><line class="cls-6" x1="44.65" y1="-7.34" x2="44.65" y2="515.04"/><line class="cls-6" x1="55.74" y1="-7.34" x2="55.74" y2="515.04"/><line class="cls-6" x1="66.82" y1="-7.34" x2="66.82" y2="515.04"/><line class="cls-6" x1="77.9" y1="-7.34" x2="77.9" y2="515.04"/><line class="cls-6" x1="88.98" y1="-7.34" x2="88.98" y2="515.04"/><line class="cls-6" x1="100.06" y1="-7.34" x2="100.06" y2="515.04"/><line class="cls-6" x1="111.14" y1="-7.34" x2="111.14" y2="515.04"/><line class="cls-6" x1="122.22" y1="-7.34" x2="122.22" y2="515.04"/><line class="cls-6" x1="133.3" y1="-7.34" x2="133.3" y2="515.04"/><line class="cls-6" x1="144.39" y1="-7.34" x2="144.39" y2="515.04"/><line class="cls-6" x1="155.47" y1="-7.34" x2="155.47" y2="515.04"/><line class="cls-6" x1="166.55" y1="-7.34" x2="166.55" y2="515.04"/><line class="cls-6" x1="177.63" y1="-7.34" x2="177.63" y2="515.04"/><line class="cls-6" x1="188.71" y1="-7.34" x2="188.71" y2="515.04"/><line class="cls-6" x1="199.79" y1="-7.34" x2="199.79" y2="515.04"/><line class="cls-6" x1="210.87" y1="-7.34" x2="210.87" y2="515.04"/><line class="cls-6" x1="221.95" y1="-7.34" x2="221.95" y2="515.04"/><line class="cls-6" x1="233.03" y1="-7.34" x2="233.03" y2="515.04"/><line class="cls-6" x1="244.12" y1="-7.34" x2="244.12" y2="515.04"/><line class="cls-6" x1="255.2" y1="-7.34" x2="255.2" y2="515.04"/><line class="cls-6" x1="266.28" y1="-7.34" x2="266.28" y2="515.04"/><line class="cls-6" x1="277.36" y1="-7.34" x2="277.36" y2="515.04"/><line class="cls-6" x1="288.44" y1="-7.34" x2="288.44" y2="515.04"/><line class="cls-6" x1="299.52" y1="-7.34" x2="299.52" y2="515.04"/><line class="cls-6" x1="310.6" y1="-7.34" x2="310.6" y2="515.04"/><line class="cls-6" x1="321.68" y1="-7.34" x2="321.68" y2="515.04"/><line class="cls-6" x1="332.77" y1="-7.34" x2="332.77" y2="515.04"/><line class="cls-6" x1="343.85" y1="-7.34" x2="343.85" y2="515.04"/><line class="cls-6" x1="354.93" y1="-7.34" x2="354.93" y2="515.04"/><line class="cls-6" x1="366.01" y1="-7.34" x2="366.01" y2="515.04"/><line class="cls-6" x1="377.09" y1="-7.34" x2="377.09" y2="515.04"/><line class="cls-6" x1="388.17" y1="-7.34" x2="388.17" y2="515.04"/><line class="cls-6" x1="399.25" y1="-7.34" x2="399.25" y2="515.04"/><line class="cls-6" x1="410.33" y1="-7.34" x2="410.33" y2="515.04"/><line class="cls-6" x1="421.41" y1="-7.34" x2="421.41" y2="515.04"/><line class="cls-6" x1="432.5" y1="-7.34" x2="432.5" y2="515.04"/><line class="cls-6" x1="443.58" y1="-7.34" x2="443.58" y2="515.04"/><line class="cls-6" x1="454.66" y1="-7.34" x2="454.66" y2="515.04"/><line class="cls-6" x1="465.74" y1="-7.34" x2="465.74" y2="515.04"/><line class="cls-6" x1="476.82" y1="-7.34" x2="476.82" y2="515.04"/><line class="cls-6" x1="487.9" y1="-7.34" x2="487.9" y2="515.04"/><line class="cls-6" x1="498.98" y1="-7.34" x2="498.98" y2="515.04"/><line class="cls-6" x1="510.06" y1="-7.34" x2="510.06" y2="515.04"/><line class="cls-6" x1="521.14" y1="-7.34" x2="521.14" y2="515.04"/><line class="cls-6" x1="532.23" y1="-7.34" x2="532.23" y2="515.04"/><line class="cls-6" x1="543.31" y1="-7.34" x2="543.31" y2="515.04"/><line class="cls-6" x1="554.39" y1="-7.34" x2="554.39" y2="515.04"/><line class="cls-6" x1="565.47" y1="-7.34" x2="565.47" y2="515.04"/><line class="cls-6" x1="576.55" y1="-7.34" x2="576.55" y2="515.04"/><line class="cls-6" x1="587.63" y1="-7.34" x2="587.63" y2="515.04"/><line class="cls-6" x1="598.71" y1="-7.34" x2="598.71" y2="515.04"/><line class="cls-6" x1="609.79" y1="-7.34" x2="609.79" y2="515.04"/><line class="cls-6" x1="620.88" y1="-7.34" x2="620.88" y2="515.04"/><line class="cls-6" x1="631.96" y1="-7.34" x2="631.96" y2="515.04"/><line class="cls-6" x1="643.04" y1="-7.34" x2="643.04" y2="515.04"/><line class="cls-6" x1="654.12" y1="-7.34" x2="654.12" y2="515.04"/><line class="cls-6" x1="665.2" y1="-7.34" x2="665.2" y2="515.04"/><line class="cls-6" x1="676.28" y1="-7.34" x2="676.28" y2="515.04"/><line class="cls-6" x1="687.36" y1="-7.34" x2="687.36" y2="515.04"/><line class="cls-6" x1="698.44" y1="-7.34" x2="698.44" y2="515.04"/><line class="cls-6" x1="709.52" y1="-7.34" x2="709.52" y2="515.04"/><line class="cls-6" x1="720.61" y1="-7.34" x2="720.61" y2="515.04"/><line class="cls-6" x1="731.69" y1="-7.34" x2="731.69" y2="515.04"/><line class="cls-6" x1="742.77" y1="-7.34" x2="742.77" y2="515.04"/></g><g class="cls-3"><line class="cls-7" x1="55.7" y1="-0.15" x2="55.7" y2="510.81"/><line class="cls-8" x1="54.78" y1="-0.15" x2="54.78" y2="510.81"/></g></g></svg>