<svg xmlns="http://www.w3.org/2000/svg" viewBox="0 0 68.45 61.95"><defs><style>.cls-1{fill:#d9dbe2;}</style></defs><title>Asset 1grid background</title><g id="Layer_2" data-name="Layer 2"><g id="Background"><ellipse class="cls-1" cx="34.22" cy="0.42" rx="0.31" ry="0.42"/><ellipse class="cls-1" cx="38.21" cy="0.42" rx="0.31" ry="0.42"/><ellipse class="cls-1" cx="42.2" cy="0.42" rx="0.31" ry="0.42"/><ellipse class="cls-1" cx="46.19" cy="0.42" rx="0.31" ry="0.42"/><ellipse class="cls-1" cx="50.18" cy="0.42" rx="0.31" ry="0.42"/><ellipse class="cls-1" cx="54.17" cy="0.42" rx="0.31" ry="0.42"/><ellipse class="cls-1" cx="58.16" cy="0.42" rx="0.31" ry="0.42"/><ellipse class="cls-1" cx="62.15" cy="0.42" rx="0.31" ry="0.42"/><ellipse class="cls-1" cx="66.14" cy="0.42" rx="0.31" ry="0.42"/><ellipse class="cls-1" cx="36.22" cy="2.86" rx="0.31" ry="0.42"/><ellipse class="cls-1" cx="40.21" cy="2.86" rx="0.31" ry="0.42"/><ellipse class="cls-1" cx="44.2" cy="2.86" rx="0.31" ry="0.42"/><ellipse class="cls-1" cx="48.19" cy="2.86" rx="0.31" ry="0.42"/><ellipse class="cls-1" cx="52.18" cy="2.86" rx="0.31" ry="0.42"/><ellipse class="cls-1" cx="56.17" cy="2.86" rx="0.31" ry="0.42"/><ellipse class="cls-1" cx="60.16" cy="2.86" rx="0.31" ry="0.42"/><ellipse class="cls-1" cx="64.15" cy="2.86" rx="0.31" ry="0.42"/><ellipse class="cls-1" cx="68.14" cy="2.86" rx="0.31" ry="0.42"/><ellipse class="cls-1" cx="34.22" cy="5.75" rx="0.31" ry="0.42"/><ellipse class="cls-1" cx="38.21" cy="5.75" rx="0.31" ry="0.42"/><ellipse class="cls-1" cx="42.2" cy="5.75" rx="0.31" ry="0.42"/><ellipse class="cls-1" cx="46.19" cy="5.75" rx="0.31" ry="0.42"/><ellipse class="cls-1" cx="50.18" cy="5.75" rx="0.31" ry="0.42"/><ellipse class="cls-1" cx="54.17" cy="5.75" rx="0.31" ry="0.42"/><ellipse class="cls-1" cx="58.16" cy="5.75" rx="0.31" ry="0.42"/><ellipse class="cls-1" cx="62.15" cy="5.75" rx="0.31" ry="0.42"/><ellipse class="cls-1" cx="66.14" cy="5.75" rx="0.31" ry="0.42"/><ellipse class="cls-1" cx="36.22" cy="8.2" rx="0.31" ry="0.42"/><ellipse class="cls-1" cx="40.21" cy="8.2" rx="0.31" ry="0.42"/><ellipse class="cls-1" cx="44.2" cy="8.2" rx="0.31" ry="0.42"/><ellipse class="cls-1" cx="48.19" cy="8.2" rx="0.31" ry="0.42"/><ellipse class="cls-1" cx="52.18" cy="8.2" rx="0.31" ry="0.42"/><ellipse class="cls-1" cx="56.17" cy="8.2" rx="0.31" ry="0.42"/><ellipse class="cls-1" cx="60.16" cy="8.2" rx="0.31" ry="0.42"/><ellipse class="cls-1" cx="64.15" cy="8.2" rx="0.31" ry="0.42"/><ellipse class="cls-1" cx="68.14" cy="8.2" rx="0.31" ry="0.42"/><ellipse class="cls-1" cx="34.22" cy="11.08" rx="0.31" ry="0.42"/><ellipse class="cls-1" cx="38.21" cy="11.08" rx="0.31" ry="0.42"/><ellipse class="cls-1" cx="42.2" cy="11.08" rx="0.31" ry="0.42"/><ellipse class="cls-1" cx="46.19" cy="11.08" rx="0.31" ry="0.42"/><ellipse class="cls-1" cx="50.18" cy="11.08" rx="0.31" ry="0.42"/><ellipse class="cls-1" cx="54.17" cy="11.08" rx="0.31" ry="0.42"/><ellipse class="cls-1" cx="58.16" cy="11.08" rx="0.31" ry="0.42"/><ellipse class="cls-1" cx="62.15" cy="11.08" rx="0.31" ry="0.42"/><ellipse class="cls-1" cx="66.14" cy="11.08" rx="0.31" ry="0.42"/><ellipse class="cls-1" cx="36.22" cy="13.53" rx="0.31" ry="0.42"/><ellipse class="cls-1" cx="40.21" cy="13.53" rx="0.31" ry="0.42"/><ellipse class="cls-1" cx="44.2" cy="13.53" rx="0.31" ry="0.42"/><ellipse class="cls-1" cx="48.19" cy="13.53" rx="0.31" ry="0.42"/><ellipse class="cls-1" cx="52.18" cy="13.53" rx="0.31" ry="0.42"/><ellipse class="cls-1" cx="56.17" cy="13.53" rx="0.31" ry="0.42"/><ellipse class="cls-1" cx="60.16" cy="13.53" rx="0.31" ry="0.42"/><ellipse class="cls-1" cx="64.15" cy="13.53" rx="0.31" ry="0.42"/><ellipse class="cls-1" cx="68.14" cy="13.53" rx="0.31" ry="0.42"/><ellipse class="cls-1" cx="34.22" cy="16.42" rx="0.31" ry="0.42"/><ellipse class="cls-1" cx="38.21" cy="16.42" rx="0.31" ry="0.42"/><ellipse class="cls-1" cx="42.2" cy="16.42" rx="0.31" ry="0.42"/><ellipse class="cls-1" cx="46.19" cy="16.42" rx="0.31" ry="0.42"/><ellipse class="cls-1" cx="50.18" cy="16.42" rx="0.31" ry="0.42"/><ellipse class="cls-1" cx="54.17" cy="16.42" rx="0.31" ry="0.42"/><ellipse class="cls-1" cx="58.16" cy="16.42" rx="0.31" ry="0.42"/><ellipse class="cls-1" cx="62.15" cy="16.42" rx="0.31" ry="0.42"/><ellipse class="cls-1" cx="66.14" cy="16.42" rx="0.31" ry="0.42"/><ellipse class="cls-1" cx="36.22" cy="18.86" rx="0.31" ry="0.42"/><ellipse class="cls-1" cx="40.21" cy="18.86" rx="0.31" ry="0.42"/><ellipse class="cls-1" cx="44.2" cy="18.86" rx="0.31" ry="0.42"/><ellipse class="cls-1" cx="48.19" cy="18.86" rx="0.31" ry="0.42"/><ellipse class="cls-1" cx="52.18" cy="18.86" rx="0.31" ry="0.42"/><ellipse class="cls-1" cx="56.17" cy="18.86" rx="0.31" ry="0.42"/><ellipse class="cls-1" cx="60.16" cy="18.86" rx="0.31" ry="0.42"/><ellipse class="cls-1" cx="64.15" cy="18.86" rx="0.31" ry="0.42"/><ellipse class="cls-1" cx="68.14" cy="18.86" rx="0.31" ry="0.42"/><ellipse class="cls-1" cx="34.22" cy="21.75" rx="0.31" ry="0.42"/><ellipse class="cls-1" cx="38.21" cy="21.75" rx="0.31" ry="0.42"/><ellipse class="cls-1" cx="42.2" cy="21.75" rx="0.31" ry="0.42"/><ellipse class="cls-1" cx="46.19" cy="21.75" rx="0.31" ry="0.42"/><ellipse class="cls-1" cx="50.18" cy="21.75" rx="0.31" ry="0.42"/><ellipse class="cls-1" cx="54.17" cy="21.75" rx="0.31" ry="0.42"/><ellipse class="cls-1" cx="58.16" cy="21.75" rx="0.31" ry="0.42"/><ellipse class="cls-1" cx="62.15" cy="21.75" rx="0.31" ry="0.42"/><ellipse class="cls-1" cx="66.14" cy="21.75" rx="0.31" ry="0.42"/><ellipse class="cls-1" cx="36.22" cy="24.2" rx="0.31" ry="0.42"/><ellipse class="cls-1" cx="40.21" cy="24.2" rx="0.31" ry="0.42"/><ellipse class="cls-1" cx="44.2" cy="24.2" rx="0.31" ry="0.42"/><ellipse class="cls-1" cx="48.19" cy="24.2" rx="0.31" ry="0.42"/><ellipse class="cls-1" cx="52.18" cy="24.2" rx="0.31" ry="0.42"/><ellipse class="cls-1" cx="56.17" cy="24.2" rx="0.31" ry="0.42"/><ellipse class="cls-1" cx="60.16" cy="24.2" rx="0.31" ry="0.42"/><ellipse class="cls-1" cx="64.15" cy="24.2" rx="0.31" ry="0.42"/><ellipse class="cls-1" cx="68.14" cy="24.2" rx="0.31" ry="0.42"/><ellipse class="cls-1" cx="34.22" cy="27.09" rx="0.31" ry="0.42"/><ellipse class="cls-1" cx="38.21" cy="27.09" rx="0.31" ry="0.42"/><ellipse class="cls-1" cx="42.2" cy="27.09" rx="0.31" ry="0.42"/><ellipse class="cls-1" cx="46.19" cy="27.09" rx="0.31" ry="0.42"/><ellipse class="cls-1" cx="50.18" cy="27.09" rx="0.31" ry="0.42"/><ellipse class="cls-1" cx="54.17" cy="27.09" rx="0.31" ry="0.42"/><ellipse class="cls-1" cx="58.16" cy="27.09" rx="0.31" ry="0.42"/><ellipse class="cls-1" cx="62.15" cy="27.09" rx="0.31" ry="0.42"/><ellipse class="cls-1" cx="66.14" cy="27.09" rx="0.31" ry="0.42"/><ellipse class="cls-1" cx="36.22" cy="29.53" rx="0.31" ry="0.42"/><ellipse class="cls-1" cx="40.21" cy="29.53" rx="0.31" ry="0.42"/><ellipse class="cls-1" cx="44.2" cy="29.53" rx="0.31" ry="0.42"/><ellipse class="cls-1" cx="48.19" cy="29.53" rx="0.31" ry="0.42"/><ellipse class="cls-1" cx="52.18" cy="29.53" rx="0.31" ry="0.42"/><ellipse class="cls-1" cx="56.17" cy="29.53" rx="0.31" ry="0.42"/><ellipse class="cls-1" cx="60.16" cy="29.53" rx="0.31" ry="0.42"/><ellipse class="cls-1" cx="64.15" cy="29.53" rx="0.31" ry="0.42"/><ellipse class="cls-1" cx="68.14" cy="29.53" rx="0.31" ry="0.42"/><ellipse class="cls-1" cx="34.22" cy="32.42" rx="0.31" ry="0.42"/><ellipse class="cls-1" cx="38.21" cy="32.42" rx="0.31" ry="0.42"/><ellipse class="cls-1" cx="42.2" cy="32.42" rx="0.31" ry="0.42"/><ellipse class="cls-1" cx="46.19" cy="32.42" rx="0.31" ry="0.42"/><ellipse class="cls-1" cx="50.18" cy="32.42" rx="0.31" ry="0.42"/><ellipse class="cls-1" cx="54.17" cy="32.42" rx="0.31" ry="0.42"/><ellipse class="cls-1" cx="58.16" cy="32.42" rx="0.31" ry="0.42"/><ellipse class="cls-1" cx="62.15" cy="32.42" rx="0.31" ry="0.42"/><ellipse class="cls-1" cx="66.14" cy="32.42" rx="0.31" ry="0.42"/><ellipse class="cls-1" cx="36.22" cy="34.87" rx="0.31" ry="0.42"/><ellipse class="cls-1" cx="40.21" cy="34.87" rx="0.31" ry="0.42"/><ellipse class="cls-1" cx="44.2" cy="34.87" rx="0.31" ry="0.42"/><ellipse class="cls-1" cx="48.19" cy="34.87" rx="0.31" ry="0.42"/><ellipse class="cls-1" cx="52.18" cy="34.87" rx="0.31" ry="0.42"/><ellipse class="cls-1" cx="56.17" cy="34.87" rx="0.31" ry="0.42"/><ellipse class="cls-1" cx="60.16" cy="34.87" rx="0.31" ry="0.42"/><ellipse class="cls-1" cx="64.15" cy="34.87" rx="0.31" ry="0.42"/><ellipse class="cls-1" cx="68.14" cy="34.87" rx="0.31" ry="0.42"/><ellipse class="cls-1" cx="34.22" cy="37.75" rx="0.31" ry="0.42"/><ellipse class="cls-1" cx="38.21" cy="37.75" rx="0.31" ry="0.42"/><ellipse class="cls-1" cx="42.2" cy="37.75" rx="0.31" ry="0.42"/><ellipse class="cls-1" cx="46.19" cy="37.75" rx="0.31" ry="0.42"/><ellipse class="cls-1" cx="50.18" cy="37.75" rx="0.31" ry="0.42"/><ellipse class="cls-1" cx="54.17" cy="37.75" rx="0.31" ry="0.42"/><ellipse class="cls-1" cx="58.16" cy="37.75" rx="0.31" ry="0.42"/><ellipse class="cls-1" cx="62.15" cy="37.75" rx="0.31" ry="0.42"/><ellipse class="cls-1" cx="66.14" cy="37.75" rx="0.31" ry="0.42"/><ellipse class="cls-1" cx="36.22" cy="40.2" rx="0.31" ry="0.42"/><ellipse class="cls-1" cx="40.21" cy="40.2" rx="0.31" ry="0.42"/><ellipse class="cls-1" cx="44.2" cy="40.2" rx="0.31" ry="0.42"/><ellipse class="cls-1" cx="48.19" cy="40.2" rx="0.31" ry="0.42"/><ellipse class="cls-1" cx="52.18" cy="40.2" rx="0.31" ry="0.42"/><ellipse class="cls-1" cx="56.17" cy="40.2" rx="0.31" ry="0.42"/><ellipse class="cls-1" cx="60.16" cy="40.2" rx="0.31" ry="0.42"/><ellipse class="cls-1" cx="64.15" cy="40.2" rx="0.31" ry="0.42"/><ellipse class="cls-1" cx="68.14" cy="40.2" rx="0.31" ry="0.42"/><ellipse class="cls-1" cx="34.22" cy="43.09" rx="0.31" ry="0.42"/><ellipse class="cls-1" cx="38.21" cy="43.09" rx="0.31" ry="0.42"/><ellipse class="cls-1" cx="42.2" cy="43.09" rx="0.31" ry="0.42"/><ellipse class="cls-1" cx="46.19" cy="43.09" rx="0.31" ry="0.42"/><ellipse class="cls-1" cx="50.18" cy="43.09" rx="0.31" ry="0.42"/><ellipse class="cls-1" cx="54.17" cy="43.09" rx="0.31" ry="0.42"/><ellipse class="cls-1" cx="58.16" cy="43.09" rx="0.31" ry="0.42"/><ellipse class="cls-1" cx="62.15" cy="43.09" rx="0.31" ry="0.42"/><ellipse class="cls-1" cx="66.14" cy="43.09" rx="0.31" ry="0.42"/><ellipse class="cls-1" cx="36.22" cy="45.53" rx="0.31" ry="0.42"/><ellipse class="cls-1" cx="40.21" cy="45.53" rx="0.31" ry="0.42"/><ellipse class="cls-1" cx="44.2" cy="45.53" rx="0.31" ry="0.42"/><ellipse class="cls-1" cx="48.19" cy="45.53" rx="0.31" ry="0.42"/><ellipse class="cls-1" cx="52.18" cy="45.53" rx="0.31" ry="0.42"/><ellipse class="cls-1" cx="56.17" cy="45.53" rx="0.31" ry="0.42"/><ellipse class="cls-1" cx="60.16" cy="45.53" rx="0.31" ry="0.42"/><ellipse class="cls-1" cx="64.15" cy="45.53" rx="0.31" ry="0.42"/><ellipse class="cls-1" cx="68.14" cy="45.53" rx="0.31" ry="0.42"/><ellipse class="cls-1" cx="34.22" cy="48.42" rx="0.31" ry="0.42"/><ellipse class="cls-1" cx="38.21" cy="48.42" rx="0.31" ry="0.42"/><ellipse class="cls-1" cx="42.2" cy="48.42" rx="0.31" ry="0.42"/><ellipse class="cls-1" cx="46.19" cy="48.42" rx="0.31" ry="0.42"/><ellipse class="cls-1" cx="50.18" cy="48.42" rx="0.31" ry="0.42"/><ellipse class="cls-1" cx="54.17" cy="48.42" rx="0.31" ry="0.42"/><ellipse class="cls-1" cx="58.16" cy="48.42" rx="0.31" ry="0.42"/><ellipse class="cls-1" cx="62.15" cy="48.42" rx="0.31" ry="0.42"/><ellipse class="cls-1" cx="66.14" cy="48.42" rx="0.31" ry="0.42"/><ellipse class="cls-1" cx="36.22" cy="50.87" rx="0.31" ry="0.42"/><ellipse class="cls-1" cx="40.21" cy="50.87" rx="0.31" ry="0.42"/><ellipse class="cls-1" cx="44.2" cy="50.87" rx="0.31" ry="0.42"/><ellipse class="cls-1" cx="48.19" cy="50.87" rx="0.31" ry="0.42"/><ellipse class="cls-1" cx="52.18" cy="50.87" rx="0.31" ry="0.42"/><ellipse class="cls-1" cx="56.17" cy="50.87" rx="0.31" ry="0.42"/><ellipse class="cls-1" cx="60.16" cy="50.87" rx="0.31" ry="0.42"/><ellipse class="cls-1" cx="64.15" cy="50.87" rx="0.31" ry="0.42"/><ellipse class="cls-1" cx="68.14" cy="50.87" rx="0.31" ry="0.42"/><ellipse class="cls-1" cx="34.22" cy="53.76" rx="0.31" ry="0.42"/><ellipse class="cls-1" cx="38.21" cy="53.76" rx="0.31" ry="0.42"/><ellipse class="cls-1" cx="42.2" cy="53.76" rx="0.31" ry="0.42"/><ellipse class="cls-1" cx="46.19" cy="53.76" rx="0.31" ry="0.42"/><ellipse class="cls-1" cx="50.18" cy="53.76" rx="0.31" ry="0.42"/><ellipse class="cls-1" cx="54.17" cy="53.76" rx="0.31" ry="0.42"/><ellipse class="cls-1" cx="58.16" cy="53.76" rx="0.31" ry="0.42"/><ellipse class="cls-1" cx="62.15" cy="53.76" rx="0.31" ry="0.42"/><ellipse class="cls-1" cx="66.14" cy="53.76" rx="0.31" ry="0.42"/><ellipse class="cls-1" cx="36.22" cy="56.2" rx="0.31" ry="0.42"/><ellipse class="cls-1" cx="40.21" cy="56.2" rx="0.31" ry="0.42"/><ellipse class="cls-1" cx="44.2" cy="56.2" rx="0.31" ry="0.42"/><ellipse class="cls-1" cx="48.19" cy="56.2" rx="0.31" ry="0.42"/><ellipse class="cls-1" cx="52.18" cy="56.2" rx="0.31" ry="0.42"/><ellipse class="cls-1" cx="56.17" cy="56.2" rx="0.31" ry="0.42"/><ellipse class="cls-1" cx="60.16" cy="56.2" rx="0.31" ry="0.42"/><ellipse class="cls-1" cx="64.15" cy="56.2" rx="0.31" ry="0.42"/><ellipse class="cls-1" cx="68.14" cy="56.2" rx="0.31" ry="0.42"/><ellipse class="cls-1" cx="34.22" cy="59.09" rx="0.31" ry="0.42"/><ellipse class="cls-1" cx="38.21" cy="59.09" rx="0.31" ry="0.42"/><ellipse class="cls-1" cx="42.2" cy="59.09" rx="0.31" ry="0.42"/><ellipse class="cls-1" cx="46.19" cy="59.09" rx="0.31" ry="0.42"/><ellipse class="cls-1" cx="50.18" cy="59.09" rx="0.31" ry="0.42"/><ellipse class="cls-1" cx="54.17" cy="59.09" rx="0.31" ry="0.42"/><ellipse class="cls-1" cx="58.16" cy="59.09" rx="0.31" ry="0.42"/><ellipse class="cls-1" cx="62.15" cy="59.09" rx="0.31" ry="0.42"/><ellipse class="cls-1" cx="66.14" cy="59.09" rx="0.31" ry="0.42"/><ellipse class="cls-1" cx="36.22" cy="61.54" rx="0.31" ry="0.42"/><ellipse class="cls-1" cx="40.21" cy="61.54" rx="0.31" ry="0.42"/><ellipse class="cls-1" cx="44.2" cy="61.54" rx="0.31" ry="0.42"/><ellipse class="cls-1" cx="48.19" cy="61.54" rx="0.31" ry="0.42"/><ellipse class="cls-1" cx="52.18" cy="61.54" rx="0.31" ry="0.42"/><ellipse class="cls-1" cx="56.17" cy="61.54" rx="0.31" ry="0.42"/><ellipse class="cls-1" cx="60.16" cy="61.54" rx="0.31" ry="0.42"/><ellipse class="cls-1" cx="64.15" cy="61.54" rx="0.31" ry="0.42"/><ellipse class="cls-1" cx="68.14" cy="61.54" rx="0.31" ry="0.42"/><ellipse class="cls-1" cx="2.3" cy="0.42" rx="0.31" ry="0.42"/><ellipse class="cls-1" cx="6.29" cy="0.42" rx="0.31" ry="0.42"/><ellipse class="cls-1" cx="10.28" cy="0.42" rx="0.31" ry="0.42"/><ellipse class="cls-1" cx="14.27" cy="0.42" rx="0.31" ry="0.42"/><ellipse class="cls-1" cx="18.26" cy="0.42" rx="0.31" ry="0.42"/><ellipse class="cls-1" cx="22.25" cy="0.42" rx="0.31" ry="0.42"/><ellipse class="cls-1" cx="26.24" cy="0.42" rx="0.31" ry="0.42"/><ellipse class="cls-1" cx="30.23" cy="0.42" rx="0.31" ry="0.42"/><ellipse class="cls-1" cx="0.31" cy="2.86" rx="0.31" ry="0.42"/><ellipse class="cls-1" cx="4.3" cy="2.86" rx="0.31" ry="0.42"/><ellipse class="cls-1" cx="8.29" cy="2.86" rx="0.31" ry="0.42"/><ellipse class="cls-1" cx="12.28" cy="2.86" rx="0.31" ry="0.42"/><ellipse class="cls-1" cx="16.27" cy="2.86" rx="0.31" ry="0.42"/><ellipse class="cls-1" cx="20.26" cy="2.86" rx="0.31" ry="0.42"/><ellipse class="cls-1" cx="24.25" cy="2.86" rx="0.31" ry="0.42"/><ellipse class="cls-1" cx="28.24" cy="2.86" rx="0.31" ry="0.42"/><ellipse class="cls-1" cx="32.23" cy="2.86" rx="0.31" ry="0.42"/><ellipse class="cls-1" cx="2.3" cy="5.75" rx="0.31" ry="0.42"/><ellipse class="cls-1" cx="6.29" cy="5.75" rx="0.31" ry="0.42"/><ellipse class="cls-1" cx="10.28" cy="5.75" rx="0.31" ry="0.42"/><ellipse class="cls-1" cx="14.27" cy="5.75" rx="0.31" ry="0.42"/><ellipse class="cls-1" cx="18.26" cy="5.75" rx="0.31" ry="0.42"/><ellipse class="cls-1" cx="22.25" cy="5.75" rx="0.31" ry="0.42"/><ellipse class="cls-1" cx="26.24" cy="5.75" rx="0.31" ry="0.42"/><ellipse class="cls-1" cx="30.23" cy="5.75" rx="0.31" ry="0.42"/><ellipse class="cls-1" cx="0.31" cy="8.2" rx="0.31" ry="0.42"/><ellipse class="cls-1" cx="4.3" cy="8.2" rx="0.31" ry="0.42"/><ellipse class="cls-1" cx="8.29" cy="8.2" rx="0.31" ry="0.42"/><ellipse class="cls-1" cx="12.28" cy="8.2" rx="0.31" ry="0.42"/><ellipse class="cls-1" cx="16.27" cy="8.2" rx="0.31" ry="0.42"/><ellipse class="cls-1" cx="20.26" cy="8.2" rx="0.31" ry="0.42"/><ellipse class="cls-1" cx="24.25" cy="8.2" rx="0.31" ry="0.42"/><ellipse class="cls-1" cx="28.24" cy="8.2" rx="0.31" ry="0.42"/><ellipse class="cls-1" cx="32.23" cy="8.2" rx="0.31" ry="0.42"/><ellipse class="cls-1" cx="2.3" cy="11.08" rx="0.31" ry="0.42"/><ellipse class="cls-1" cx="6.29" cy="11.08" rx="0.31" ry="0.42"/><ellipse class="cls-1" cx="10.28" cy="11.08" rx="0.31" ry="0.42"/><ellipse class="cls-1" cx="14.27" cy="11.08" rx="0.31" ry="0.42"/><ellipse class="cls-1" cx="18.26" cy="11.08" rx="0.31" ry="0.42"/><ellipse class="cls-1" cx="22.25" cy="11.08" rx="0.31" ry="0.42"/><ellipse class="cls-1" cx="26.24" cy="11.08" rx="0.31" ry="0.42"/><ellipse class="cls-1" cx="30.23" cy="11.08" rx="0.31" ry="0.42"/><ellipse class="cls-1" cx="0.31" cy="13.53" rx="0.31" ry="0.42"/><ellipse class="cls-1" cx="4.3" cy="13.53" rx="0.31" ry="0.42"/><ellipse class="cls-1" cx="8.29" cy="13.53" rx="0.31" ry="0.42"/><ellipse class="cls-1" cx="12.28" cy="13.53" rx="0.31" ry="0.42"/><ellipse class="cls-1" cx="16.27" cy="13.53" rx="0.31" ry="0.42"/><ellipse class="cls-1" cx="20.26" cy="13.53" rx="0.31" ry="0.42"/><ellipse class="cls-1" cx="24.25" cy="13.53" rx="0.31" ry="0.42"/><ellipse class="cls-1" cx="28.24" cy="13.53" rx="0.31" ry="0.42"/><ellipse class="cls-1" cx="32.23" cy="13.53" rx="0.31" ry="0.42"/><ellipse class="cls-1" cx="2.3" cy="16.42" rx="0.31" ry="0.42"/><ellipse class="cls-1" cx="6.29" cy="16.42" rx="0.31" ry="0.42"/><ellipse class="cls-1" cx="10.28" cy="16.42" rx="0.31" ry="0.42"/><ellipse class="cls-1" cx="14.27" cy="16.42" rx="0.31" ry="0.42"/><ellipse class="cls-1" cx="18.26" cy="16.42" rx="0.31" ry="0.42"/><ellipse class="cls-1" cx="22.25" cy="16.42" rx="0.31" ry="0.42"/><ellipse class="cls-1" cx="26.24" cy="16.42" rx="0.31" ry="0.42"/><ellipse class="cls-1" cx="30.23" cy="16.42" rx="0.31" ry="0.42"/><ellipse class="cls-1" cx="0.31" cy="18.86" rx="0.31" ry="0.42"/><ellipse class="cls-1" cx="4.3" cy="18.86" rx="0.31" ry="0.42"/><ellipse class="cls-1" cx="8.29" cy="18.86" rx="0.31" ry="0.42"/><ellipse class="cls-1" cx="12.28" cy="18.86" rx="0.31" ry="0.42"/><ellipse class="cls-1" cx="16.27" cy="18.86" rx="0.31" ry="0.42"/><ellipse class="cls-1" cx="20.26" cy="18.86" rx="0.31" ry="0.42"/><ellipse class="cls-1" cx="24.25" cy="18.86" rx="0.31" ry="0.42"/><ellipse class="cls-1" cx="28.24" cy="18.86" rx="0.31" ry="0.42"/><ellipse class="cls-1" cx="32.23" cy="18.86" rx="0.31" ry="0.42"/><ellipse class="cls-1" cx="2.3" cy="21.75" rx="0.31" ry="0.42"/><ellipse class="cls-1" cx="6.29" cy="21.75" rx="0.31" ry="0.42"/><ellipse class="cls-1" cx="10.28" cy="21.75" rx="0.31" ry="0.42"/><ellipse class="cls-1" cx="14.27" cy="21.75" rx="0.31" ry="0.42"/><ellipse class="cls-1" cx="18.26" cy="21.75" rx="0.31" ry="0.42"/><ellipse class="cls-1" cx="22.25" cy="21.75" rx="0.31" ry="0.42"/><ellipse class="cls-1" cx="26.24" cy="21.75" rx="0.31" ry="0.42"/><ellipse class="cls-1" cx="30.23" cy="21.75" rx="0.31" ry="0.42"/><ellipse class="cls-1" cx="0.31" cy="24.2" rx="0.31" ry="0.42"/><ellipse class="cls-1" cx="4.3" cy="24.2" rx="0.31" ry="0.42"/><ellipse class="cls-1" cx="8.29" cy="24.2" rx="0.31" ry="0.42"/><ellipse class="cls-1" cx="12.28" cy="24.2" rx="0.31" ry="0.42"/><ellipse class="cls-1" cx="16.27" cy="24.2" rx="0.31" ry="0.42"/><ellipse class="cls-1" cx="20.26" cy="24.2" rx="0.31" ry="0.42"/><ellipse class="cls-1" cx="24.25" cy="24.2" rx="0.31" ry="0.42"/><ellipse class="cls-1" cx="28.24" cy="24.2" rx="0.31" ry="0.42"/><ellipse class="cls-1" cx="32.23" cy="24.2" rx="0.31" ry="0.42"/><ellipse class="cls-1" cx="2.3" cy="27.09" rx="0.31" ry="0.42"/><ellipse class="cls-1" cx="6.29" cy="27.09" rx="0.31" ry="0.42"/><ellipse class="cls-1" cx="10.28" cy="27.09" rx="0.31" ry="0.42"/><ellipse class="cls-1" cx="14.27" cy="27.09" rx="0.31" ry="0.42"/><ellipse class="cls-1" cx="18.26" cy="27.09" rx="0.31" ry="0.42"/><ellipse class="cls-1" cx="22.25" cy="27.09" rx="0.31" ry="0.42"/><ellipse class="cls-1" cx="26.24" cy="27.09" rx="0.31" ry="0.42"/><ellipse class="cls-1" cx="30.23" cy="27.09" rx="0.31" ry="0.42"/><ellipse class="cls-1" cx="0.31" cy="29.53" rx="0.31" ry="0.42"/><ellipse class="cls-1" cx="4.3" cy="29.53" rx="0.31" ry="0.42"/><ellipse class="cls-1" cx="8.29" cy="29.53" rx="0.31" ry="0.42"/><ellipse class="cls-1" cx="12.28" cy="29.53" rx="0.31" ry="0.42"/><ellipse class="cls-1" cx="16.27" cy="29.53" rx="0.31" ry="0.42"/><ellipse class="cls-1" cx="20.26" cy="29.53" rx="0.31" ry="0.42"/><ellipse class="cls-1" cx="24.25" cy="29.53" rx="0.31" ry="0.42"/><ellipse class="cls-1" cx="28.24" cy="29.53" rx="0.31" ry="0.42"/><ellipse class="cls-1" cx="32.23" cy="29.53" rx="0.31" ry="0.42"/><ellipse class="cls-1" cx="2.3" cy="32.42" rx="0.31" ry="0.42"/><ellipse class="cls-1" cx="6.29" cy="32.42" rx="0.31" ry="0.42"/><ellipse class="cls-1" cx="10.28" cy="32.42" rx="0.31" ry="0.42"/><ellipse class="cls-1" cx="14.27" cy="32.42" rx="0.31" ry="0.42"/><ellipse class="cls-1" cx="18.26" cy="32.42" rx="0.31" ry="0.42"/><ellipse class="cls-1" cx="22.25" cy="32.42" rx="0.31" ry="0.42"/><ellipse class="cls-1" cx="26.24" cy="32.42" rx="0.31" ry="0.42"/><ellipse class="cls-1" cx="30.23" cy="32.42" rx="0.31" ry="0.42"/><ellipse class="cls-1" cx="0.31" cy="34.87" rx="0.31" ry="0.42"/><ellipse class="cls-1" cx="4.3" cy="34.87" rx="0.31" ry="0.42"/><ellipse class="cls-1" cx="8.29" cy="34.87" rx="0.31" ry="0.42"/><ellipse class="cls-1" cx="12.28" cy="34.87" rx="0.31" ry="0.42"/><ellipse class="cls-1" cx="16.27" cy="34.87" rx="0.31" ry="0.42"/><ellipse class="cls-1" cx="20.26" cy="34.87" rx="0.31" ry="0.42"/><ellipse class="cls-1" cx="24.25" cy="34.87" rx="0.31" ry="0.42"/><ellipse class="cls-1" cx="28.24" cy="34.87" rx="0.31" ry="0.42"/><ellipse class="cls-1" cx="32.23" cy="34.87" rx="0.31" ry="0.42"/><ellipse class="cls-1" cx="2.3" cy="37.75" rx="0.31" ry="0.42"/><ellipse class="cls-1" cx="6.29" cy="37.75" rx="0.31" ry="0.42"/><ellipse class="cls-1" cx="10.28" cy="37.75" rx="0.31" ry="0.42"/><ellipse class="cls-1" cx="14.27" cy="37.75" rx="0.31" ry="0.42"/><ellipse class="cls-1" cx="18.26" cy="37.75" rx="0.31" ry="0.42"/><ellipse class="cls-1" cx="22.25" cy="37.75" rx="0.31" ry="0.42"/><ellipse class="cls-1" cx="26.24" cy="37.75" rx="0.31" ry="0.42"/><ellipse class="cls-1" cx="30.23" cy="37.75" rx="0.31" ry="0.42"/><ellipse class="cls-1" cx="0.31" cy="40.2" rx="0.31" ry="0.42"/><ellipse class="cls-1" cx="4.3" cy="40.2" rx="0.31" ry="0.42"/><ellipse class="cls-1" cx="8.29" cy="40.2" rx="0.31" ry="0.42"/><ellipse class="cls-1" cx="12.28" cy="40.2" rx="0.31" ry="0.42"/><ellipse class="cls-1" cx="16.27" cy="40.2" rx="0.31" ry="0.42"/><ellipse class="cls-1" cx="20.26" cy="40.2" rx="0.31" ry="0.42"/><ellipse class="cls-1" cx="24.25" cy="40.2" rx="0.31" ry="0.42"/><ellipse class="cls-1" cx="28.24" cy="40.2" rx="0.31" ry="0.42"/><ellipse class="cls-1" cx="32.23" cy="40.2" rx="0.31" ry="0.42"/><ellipse class="cls-1" cx="2.3" cy="43.09" rx="0.31" ry="0.42"/><ellipse class="cls-1" cx="6.29" cy="43.09" rx="0.31" ry="0.42"/><ellipse class="cls-1" cx="10.28" cy="43.09" rx="0.31" ry="0.42"/><ellipse class="cls-1" cx="14.27" cy="43.09" rx="0.31" ry="0.42"/><ellipse class="cls-1" cx="18.26" cy="43.09" rx="0.31" ry="0.42"/><ellipse class="cls-1" cx="22.25" cy="43.09" rx="0.31" ry="0.42"/><ellipse class="cls-1" cx="26.24" cy="43.09" rx="0.31" ry="0.42"/><ellipse class="cls-1" cx="30.23" cy="43.09" rx="0.31" ry="0.42"/><ellipse class="cls-1" cx="0.31" cy="45.53" rx="0.31" ry="0.42"/><ellipse class="cls-1" cx="4.3" cy="45.53" rx="0.31" ry="0.42"/><ellipse class="cls-1" cx="8.29" cy="45.53" rx="0.31" ry="0.42"/><ellipse class="cls-1" cx="12.28" cy="45.53" rx="0.31" ry="0.42"/><ellipse class="cls-1" cx="16.27" cy="45.53" rx="0.31" ry="0.42"/><ellipse class="cls-1" cx="20.26" cy="45.53" rx="0.31" ry="0.42"/><ellipse class="cls-1" cx="24.25" cy="45.53" rx="0.31" ry="0.42"/><ellipse class="cls-1" cx="28.24" cy="45.53" rx="0.31" ry="0.42"/><ellipse class="cls-1" cx="32.23" cy="45.53" rx="0.31" ry="0.42"/><ellipse class="cls-1" cx="2.3" cy="48.42" rx="0.31" ry="0.42"/><ellipse class="cls-1" cx="6.29" cy="48.42" rx="0.31" ry="0.42"/><ellipse class="cls-1" cx="10.28" cy="48.42" rx="0.31" ry="0.42"/><ellipse class="cls-1" cx="14.27" cy="48.42" rx="0.31" ry="0.42"/><ellipse class="cls-1" cx="18.26" cy="48.42" rx="0.31" ry="0.42"/><ellipse class="cls-1" cx="22.25" cy="48.42" rx="0.31" ry="0.42"/><ellipse class="cls-1" cx="26.24" cy="48.42" rx="0.31" ry="0.42"/><ellipse class="cls-1" cx="30.23" cy="48.42" rx="0.31" ry="0.42"/><ellipse class="cls-1" cx="0.31" cy="50.87" rx="0.31" ry="0.42"/><ellipse class="cls-1" cx="4.3" cy="50.87" rx="0.31" ry="0.42"/><ellipse class="cls-1" cx="8.29" cy="50.87" rx="0.31" ry="0.42"/><ellipse class="cls-1" cx="12.28" cy="50.87" rx="0.31" ry="0.42"/><ellipse class="cls-1" cx="16.27" cy="50.87" rx="0.31" ry="0.42"/><ellipse class="cls-1" cx="20.26" cy="50.87" rx="0.31" ry="0.42"/><ellipse class="cls-1" cx="24.25" cy="50.87" rx="0.31" ry="0.42"/><ellipse class="cls-1" cx="28.24" cy="50.87" rx="0.31" ry="0.42"/><ellipse class="cls-1" cx="32.23" cy="50.87" rx="0.31" ry="0.42"/><ellipse class="cls-1" cx="2.3" cy="53.76" rx="0.31" ry="0.42"/><ellipse class="cls-1" cx="6.29" cy="53.76" rx="0.31" ry="0.42"/><ellipse class="cls-1" cx="10.28" cy="53.76" rx="0.31" ry="0.42"/><ellipse class="cls-1" cx="14.27" cy="53.76" rx="0.31" ry="0.42"/><ellipse class="cls-1" cx="18.26" cy="53.76" rx="0.31" ry="0.42"/><ellipse class="cls-1" cx="22.25" cy="53.76" rx="0.31" ry="0.42"/><ellipse class="cls-1" cx="26.24" cy="53.76" rx="0.31" ry="0.42"/><ellipse class="cls-1" cx="30.23" cy="53.76" rx="0.31" ry="0.42"/><ellipse class="cls-1" cx="0.31" cy="56.2" rx="0.31" ry="0.42"/><ellipse class="cls-1" cx="4.3" cy="56.2" rx="0.31" ry="0.42"/><ellipse class="cls-1" cx="8.29" cy="56.2" rx="0.31" ry="0.42"/><ellipse class="cls-1" cx="12.28" cy="56.2" rx="0.31" ry="0.42"/><ellipse class="cls-1" cx="16.27" cy="56.2" rx="0.31" ry="0.42"/><ellipse class="cls-1" cx="20.26" cy="56.2" rx="0.31" ry="0.42"/><ellipse class="cls-1" cx="24.25" cy="56.2" rx="0.31" ry="0.42"/><ellipse class="cls-1" cx="28.24" cy="56.2" rx="0.31" ry="0.42"/><ellipse class="cls-1" cx="32.23" cy="56.2" rx="0.31" ry="0.42"/><ellipse class="cls-1" cx="2.3" cy="59.09" rx="0.31" ry="0.42"/><ellipse class="cls-1" cx="6.29" cy="59.09" rx="0.31" ry="0.42"/><ellipse class="cls-1" cx="10.28" cy="59.09" rx="0.31" ry="0.42"/><ellipse class="cls-1" cx="14.27" cy="59.09" rx="0.31" ry="0.42"/><ellipse class="cls-1" cx="18.26" cy="59.09" rx="0.31" ry="0.42"/><ellipse class="cls-1" cx="22.25" cy="59.09" rx="0.31" ry="0.42"/><ellipse class="cls-1" cx="26.24" cy="59.09" rx="0.31" ry="0.42"/><ellipse class="cls-1" cx="30.23" cy="59.09" rx="0.31" ry="0.42"/><ellipse class="cls-1" cx="0.31" cy="61.54" rx="0.31" ry="0.42"/><ellipse class="cls-1" cx="4.3" cy="61.54" rx="0.31" ry="0.42"/><ellipse class="cls-1" cx="8.29" cy="61.54" rx="0.31" ry="0.42"/><ellipse class="cls-1" cx="12.28" cy="61.54" rx="0.31" ry="0.42"/><ellipse class="cls-1" cx="16.27" cy="61.54" rx="0.31" ry="0.42"/><ellipse class="cls-1" cx="20.26" cy="61.54" rx="0.31" ry="0.42"/><ellipse class="cls-1" cx="24.25" cy="61.54" rx="0.31" ry="0.42"/><ellipse class="cls-1" cx="28.24" cy="61.54" rx="0.31" ry="0.42"/><ellipse class="cls-1" cx="32.23" cy="61.54" rx="0.31" ry="0.42"/></g></g></svg>